<?xml version="1.0" encoding="UTF-8"?>
<svg version="1.1" xmlns="http://www.w3.org/2000/svg" width="96" height="96">
<path d="M0 0 C31.68 0 63.36 0 96 0 C96 31.68 96 63.36 96 96 C64.32 96 32.64 96 0 96 C0 64.32 0 32.64 0 0 Z " fill="#010101" transform="translate(0,0)"/>
<path d="M0 0 C3.63 0 7.26 0 11 0 C17.53611696 12.90368075 23.79094048 25.93624867 30 39 C32.45884687 36.54115313 33.42246573 34.16635007 34.86328125 30.99609375 C35.13714157 30.39877945 35.41100189 29.80146515 35.69316101 29.18605042 C36.57050729 27.27176813 37.44207584 25.35493867 38.3125 23.4375 C41.93780884 15.46018523 45.60638703 7.59196537 50 0 C53.96 0 57.92 0 62 0 C61.01 0.66 60.02 1.32 59 2 C58.52511301 4.051625 58.52511301 4.051625 58.56762695 6.44970703 C58.54783279 7.37051056 58.52803864 8.29131409 58.50764465 9.24002075 C58.49805977 10.73382767 58.49805977 10.73382767 58.48828125 12.2578125 C58.47033005 13.27600067 58.45237885 14.29418884 58.43388367 15.3432312 C58.37958653 18.60377832 58.34582262 21.86417748 58.3125 25.125 C58.27934408 27.33205193 58.24485606 29.53908429 58.20898438 31.74609375 C58.12384925 37.16392981 58.05558196 42.58178457 58 48 C59.32 48 60.64 48 62 48 C62 48.66 62 49.32 62 50 C56.72 50 51.44 50 46 50 C46 49.34 46 48.68 46 48 C47.32 48 48.64 48 50 48 C49.67 36.78 49.34 25.56 49 14 C47.329375 17.526875 45.65875 21.05375 43.9375 24.6875 C39.85576583 33.26265318 35.65668346 41.71968572 31 50 C28.69946289 49.87133789 28.69946289 49.87133789 26 49 C24.30249023 46.44311523 24.30249023 46.44311523 22.80859375 43.05859375 C22.40061302 42.15694237 22.40061302 42.15694237 21.98439026 41.23707581 C21.11752459 39.3113079 20.27713049 37.37527563 19.4375 35.4375 C18.58851111 33.52769865 17.73428326 31.62029796 16.87989807 29.71290588 C16.10111442 27.96644827 15.33426304 26.21468408 14.56811523 24.46264648 C12.81573991 20.59312458 10.89968519 16.79937038 9 13 C8.67 24.55 8.34 36.1 8 48 C8.99 48 9.98 48 11 48 C11 48.66 11 49.32 11 50 C7.37 50 3.74 50 0 50 C0 49.34 0 48.68 0 48 C0.99 48 1.98 48 3 48 C3 32.49 3 16.98 3 1 C2.01 0.67 1.02 0.34 0 0 Z " fill="#ECECEC" transform="translate(17,23)"/>
</svg>
